# xmcd
#
# Track frame offsets:
#	180
#	21761
#	42886
#	79180
#	100530
#	121015
#	157595
#	179233
#	205057
#	242976
#	269198
#	289412
#	294795
#	305661
#
# Disc length: 4347 seconds
#
# Revision: 1
# Processed by: cddbd v1.5PL3 Copyright (c) Steve Scherf et al.
# Submitted via: audiograbber 1.83.01
#
DISCID=c310f90e
DTITLE=Royal Scottish Country Dance Society - Tweedside
DYEAR=1996
DGENRE=Scottish Country Dance
TTITLE0=Maxwell's Rant (R8x32)
TTITLE1=Two and Two (J8x32)
TTITLE2=Sugar Candie (S8x32)
TTITLE3=The Montgomeries' Rant (R8x32)
TTITLE4=Duke of Atholl's Reel (J8x32)
TTITLE5=Miss Milligan's Strathspey (S8x32)
TTITLE6=Mrs Stewart of Fasnacloich (R8x32)
TTITLE7=Strip the Willow (J8x40)
TTITLE8=New Park (S8x32)
TTITLE9=None So Pretty (R8x40)
TTITLE10=Miss Hadden's Reel (J8x32)
TTITLE11=Axum Reel (S1x32)
TTITLE12=West's Hornpipe (R4x32)
TTITLE13=Tweedside (Minuet 4x36)
EXTD=
EXTT0=
EXTT1=
EXTT2=
EXTT3=
EXTT4=
EXTT5=
EXTT6=
EXTT7=
EXTT8=
EXTT9=
EXTT10=
EXTT11=
EXTT12=
EXTT13=
PLAYORDER=
